<svg width="512" height="512" viewBox="0 0 512 512" xmlns="http://www.w3.org/2000/svg">
  <defs>
    <linearGradient id="guitarGradient" x1="0%" y1="0%" x2="100%" y2="100%">
      <stop offset="0%" style="stop-color:#e65100;stop-opacity:1" />
      <stop offset="50%" style="stop-color:#f57c00;stop-opacity:1" />
      <stop offset="100%" style="stop-color:#ffb74d;stop-opacity:1" />
    </linearGradient>
    <filter id="dropShadow" x="-20%" y="-20%" width="140%" height="140%">
      <feGaussianBlur in="SourceAlpha" stdDeviation="15"/>
      <feOffset dx="5" dy="10" result="offsetblur"/>
      <feComponentTransfer>
        <feFuncA type="linear" slope="0.4"/>
      </feComponentTransfer>
      <feMerge> 
        <feMergeNode/>
        <feMergeNode in="SourceGraphic"/> 
      </feMerge>
    </filter>
  </defs>
  
  <g filter="url(#dropShadow)" transform="translate(25, 25) scale(0.9)">
      <!-- Guitar Body: Complex Path for realistic shape -->
      <path d="M256 460c-66 0-120-40-120-110 0-35 20-60 45-75-15-15-25-40-25-65 0-50 45-80 100-80s100 30 100 80c0 25-10 50-25 65 25 15 45 40 45 75 0 70-54 110-120 110z" fill="url(#guitarGradient)"/>
      
      <!-- Sound Hole (Rosette) -->
      <circle cx="256" cy="300" r="38" fill="#3e2723" stroke="#ffd54f" stroke-width="4"/>
      
      <!-- Bridge -->
      <rect x="216" y="400" width="80" height="15" rx="5" fill="#3e2723"/>

      <!-- Neck -->
      <rect x="242" y="40" width="28" height="230" fill="#4e342e"/>
      
      <!-- Headstock -->
      <path d="M236 10h40l5 50h-50z" fill="#d4af37"/>
      
      <!-- Tuning Pegs -->
      <circle cx="232" cy="20" r="5" fill="#f5f5f5"/>
      <circle cx="232" cy="40" r="5" fill="#f5f5f5"/>
      <circle cx="280" cy="20" r="5" fill="#f5f5f5"/>
      <circle cx="280" cy="40" r="5" fill="#f5f5f5"/>
      
      <!-- Strings -->
      <line x1="248" y1="10" x2="248" y2="405" stroke="#fff" stroke-width="1" opacity="0.8"/>
      <line x1="256" y1="10" x2="256" y2="405" stroke="#fff" stroke-width="1" opacity="0.8"/>
      <line x1="264" y1="10" x2="264" y2="405" stroke="#fff" stroke-width="1" opacity="0.8"/>
  </g>
</svg>
